<svg xmlns="http://www.w3.org/2000/svg" width="260" height="400" viewBox="0 0 260 400" fill="none">
  <defs>
    <linearGradient id="bg" x1="0" y1="0" x2="260" y2="400" gradientUnits="userSpaceOnUse">
      <stop stop-color="#102C55"/>
      <stop offset="0.55" stop-color="#1F4E7F"/>
      <stop offset="1" stop-color="#2F7898"/>
    </linearGradient>
    <radialGradient id="glowA" cx="0" cy="0" r="1" gradientUnits="userSpaceOnUse" gradientTransform="translate(56 72) rotate(45) scale(126 112)">
      <stop stop-color="#8FC2FF" stop-opacity="0.42"/>
      <stop offset="1" stop-color="#8FC2FF" stop-opacity="0"/>
    </radialGradient>
    <radialGradient id="glowB" cx="0" cy="0" r="1" gradientUnits="userSpaceOnUse" gradientTransform="translate(204 334) rotate(45) scale(138 108)">
      <stop stop-color="#89E6D6" stop-opacity="0.35"/>
      <stop offset="1" stop-color="#89E6D6" stop-opacity="0"/>
    </radialGradient>
    <linearGradient id="lineMain" x1="44" y1="286" x2="216" y2="132" gradientUnits="userSpaceOnUse">
      <stop stop-color="#FFC98A"/>
      <stop offset="1" stop-color="#FF8E5D"/>
    </linearGradient>
    <linearGradient id="lineSub" x1="44" y1="306" x2="216" y2="164" gradientUnits="userSpaceOnUse">
      <stop stop-color="#9AD9FF"/>
      <stop offset="1" stop-color="#81A9FF"/>
    </linearGradient>
    <filter id="lineShadow" x="34" y="124" width="192" height="194" filterUnits="userSpaceOnUse" color-interpolation-filters="sRGB">
      <feDropShadow dx="0" dy="8" stdDeviation="6" flood-color="#081A34" flood-opacity="0.34"/>
    </filter>
  </defs>

  <rect width="260" height="400" rx="24" fill="url(#bg)"/>
  <rect width="260" height="400" rx="24" fill="url(#glowA)"/>
  <rect width="260" height="400" rx="24" fill="url(#glowB)"/>

  <g opacity="0.45" stroke="#D2E7FF">
    <path d="M36 318H224"/>
    <path d="M36 278H224"/>
    <path d="M36 238H224"/>
    <path d="M36 198H224"/>
    <path d="M36 158H224"/>
  </g>

  <g filter="url(#lineShadow)">
    <path d="M44 290L74 268L102 276L132 228L162 242L192 176L216 140" stroke="url(#lineMain)" stroke-width="5.2" stroke-linecap="round" stroke-linejoin="round"/>
    <path d="M44 306L74 298L102 250L132 264L162 214L192 226L216 194" stroke="url(#lineSub)" stroke-width="5.2" stroke-linecap="round" stroke-linejoin="round"/>
  </g>

  <g>
    <circle cx="74" cy="268" r="5" fill="#FFDDB1"/>
    <circle cx="132" cy="228" r="5" fill="#FFDDB1"/>
    <circle cx="192" cy="176" r="5" fill="#FFDDB1"/>
    <circle cx="216" cy="140" r="5" fill="#FFDDB1"/>
    <circle cx="102" cy="250" r="5" fill="#D9E9FF"/>
    <circle cx="162" cy="214" r="5" fill="#D9E9FF"/>
    <circle cx="216" cy="194" r="5" fill="#D9E9FF"/>
  </g>

  <g>
    <rect x="40" y="88" width="84" height="26" rx="13" fill="#FFFFFF" fill-opacity="0.2"/>
    <text x="56" y="105" fill="#ECF5FF" font-size="11" font-family="Poppins, Arial, sans-serif" font-weight="600">Tests</text>
    <rect x="132" y="88" width="92" height="26" rx="13" fill="#FFFFFF" fill-opacity="0.2"/>
    <text x="146" y="105" fill="#ECF5FF" font-size="11" font-family="Poppins, Arial, sans-serif" font-weight="600">Completed</text>
  </g>

  <g>
    <rect x="40" y="336" width="180" height="12" rx="6" fill="#FFFFFF" fill-opacity="0.2"/>
    <rect x="40" y="336" width="134" height="12" rx="6" fill="#8FCCFF"/>
  </g>
</svg>
