<svg xmlns="http://www.w3.org/2000/svg" width="260" height="400" viewBox="0 0 260 400" fill="none">
  <defs>
    <linearGradient id="coinFill" x1="0" y1="0" x2="0" y2="1">
      <stop stop-color="#FFE98F"/>
      <stop offset="1" stop-color="#F3BE4E"/>
    </linearGradient>
    <linearGradient id="pigBody" x1="62" y1="176" x2="220" y2="292" gradientUnits="userSpaceOnUse">
      <stop stop-color="#F7B9A9"/>
      <stop offset="1" stop-color="#EE9B87"/>
    </linearGradient>
    <linearGradient id="snoutFill" x1="78" y1="228" x2="126" y2="264" gradientUnits="userSpaceOnUse">
      <stop stop-color="#F1A187"/>
      <stop offset="1" stop-color="#E58F78"/>
    </linearGradient>
    <filter id="pigDrop" x="36" y="120" width="194" height="194" filterUnits="userSpaceOnUse" color-interpolation-filters="sRGB">
      <feDropShadow dx="0" dy="10" stdDeviation="8" flood-color="#6A3A48" flood-opacity="0.24"/>
    </filter>
  </defs>

  <ellipse cx="132" cy="296" rx="74" ry="15" fill="#5A2E3D" fill-opacity="0.16"/>

  <g transform="translate(0 2)">
    <g>
      <circle cx="132" cy="142" r="20" fill="url(#coinFill)"/>
      <circle cx="132" cy="142" r="14.2" fill="none" stroke="#E2B949" stroke-width="2.2"/>
      <path d="M132 131V152M138 135.2C136.8 133.5 134.4 132.4 132 132.4C128.6 132.4 126.4 134.1 126.4 136.3C126.4 138.5 128.6 139.7 132 140.4C135.4 141.1 137.6 142.3 137.6 144.7C137.6 147.1 135.2 148.7 132 148.7C129 148.7 126.4 147.3 125.2 145.2" stroke="#A07412" stroke-width="2" stroke-linecap="round"/>
      <rect x="126.8" y="159.2" width="10.4" height="15.2" rx="5.2" fill="#E9A568"/>
    </g>

    <g filter="url(#pigDrop)">
      <ellipse cx="138" cy="232" rx="70" ry="54" fill="url(#pigBody)"/>
      <ellipse cx="182" cy="224" rx="30" ry="27" fill="url(#pigBody)"/>
      <path d="M138 178C176 178 205 202 208 232C208.2 234 208.2 236 208 238C205 268 176 292 138 292C100 292 71 268 68 238C67.8 236 67.8 234 68 232C71 202 100 178 138 178Z" stroke="#DF8A78" stroke-width="2"/>

      <path d="M181 194L161 178L188 170L200 190Z" fill="#E78975"/>
      <path d="M181 194L161 178L188 170L200 190Z" stroke="#DA7E6B" stroke-width="1.6" stroke-linejoin="round"/>

      <ellipse cx="94" cy="234" rx="24" ry="20" fill="url(#snoutFill)"/>
      <ellipse cx="86" cy="234" rx="3.6" ry="4.5" fill="#6B3C4D"/>
      <ellipse cx="98" cy="234" rx="3.6" ry="4.5" fill="#6B3C4D"/>

      <circle cx="130" cy="216" r="5.6" fill="#4E2F3F"/>
      <circle cx="150" cy="214" r="5.6" fill="#4E2F3F"/>

      <path d="M126 252C132 258 145 258 152 252" stroke="#A25A6E" stroke-width="4" stroke-linecap="round"/>

      <path d="M200 250C208 251 214 257 214 265C214 273 208 279 200 280" stroke="#D88572" stroke-width="6" stroke-linecap="round"/>
      <path d="M198 260C202 260 205 263 205 267C205 271 202 274 198 274" stroke="#B46C5E" stroke-width="2.4" stroke-linecap="round"/>

      <rect x="114" y="274" width="18" height="22" rx="6" fill="#E79480"/>
      <rect x="164" y="271" width="18" height="24" rx="6" fill="#E79480"/>
      <rect x="86" y="271" width="18" height="24" rx="6" fill="#E79480"/>
    </g>
  </g>
</svg>
