<svg xmlns="http://www.w3.org/2000/svg" width="256" height="80" viewBox="0 0 256 80" fill="none">
  <defs>
    <linearGradient id="logoBlue" x1="24" y1="8" x2="80" y2="56" gradientUnits="userSpaceOnUse">
      <stop offset="0" stop-color="#1D56C1"/>
      <stop offset="1" stop-color="#153B99"/>
    </linearGradient>
    <linearGradient id="logoOrange" x1="60" y1="40" x2="96" y2="64" gradientUnits="userSpaceOnUse">
      <stop offset="0" stop-color="#FF9A24"/>
      <stop offset="1" stop-color="#FF6D00"/>
    </linearGradient>
  </defs>

  <g>
    <path d="M40.2 9.8c4.5-7.7 15.6-7.7 20 0l17 29.5c4.4 7.7-1.1 17.2-10 17.2h-34c-8.9 0-14.4-9.5-10-17.2L40.2 9.8z" fill="url(#logoBlue)" transform="rotate(28 50 33)"/>
    <path d="M64.7 33.8c3-5.2 10.5-5.2 13.5 0l11.2 19.5c3 5.1-.7 11.5-6.7 11.5H60.5c-6 0-9.7-6.4-6.7-11.5l10.9-19.5z" fill="url(#logoOrange)" transform="rotate(-28 72 49)"/>
  </g>

  <g fill="#1D2F5D">
    <path d="M108.2 52.7c-3.6 0-6.5-2.8-6.5-6.5 0-3.6 2.8-6.5 6.5-6.5 3.6 0 6.5 2.8 6.5 6.5 0 3.6-2.9 6.5-6.5 6.5zm0-2.7c2 0 3.7-1.6 3.7-3.7s-1.7-3.7-3.7-3.7c-2.1 0-3.8 1.6-3.8 3.7s1.7 3.7 3.8 3.7z"/>
    <path d="M123.8 41.3c3.5 0 5.6 1.8 5.6 5.4v5.6h-2.8v-5.2c0-2-1-3.1-3-3.1-2.2 0-3.5 1.2-3.5 3.7v4.6h-2.8V41.6h2.7v1.7c.8-1.2 2.1-2 3.8-2z"/>
    <path d="M135.4 36.5v15.8h-2.8V36.5h2.8z"/>
    <path d="M143.2 41.3c3.8 0 6.4 2.5 6.4 5.9 0 3.5-2.7 6-6.4 6-3.8 0-6.4-2.5-6.4-6 0-3.4 2.6-5.9 6.4-5.9zm0 2.7c-2.1 0-3.6 1.4-3.6 3.2 0 1.9 1.5 3.3 3.6 3.3s3.5-1.4 3.5-3.3c0-1.8-1.4-3.2-3.5-3.2z"/>
    <path d="M161.8 41.6h2.8v10.1c0 4.1-2.7 6.4-6.8 6.4-2.2 0-4-.5-5.6-1.7l1.1-2.1c1.2.8 2.5 1.3 4.2 1.3 2.6 0 4.2-1.3 4.2-3.7v-1.2c-.8 1.2-2.1 2-3.9 2-3.4 0-5.7-2.4-5.7-5.7 0-3.2 2.3-5.6 5.7-5.6 1.8 0 3.1.7 4 2v-1.8zm-3.6 8.6c2.1 0 3.5-1.4 3.5-3.2 0-1.8-1.4-3.2-3.5-3.2-2.1 0-3.5 1.4-3.5 3.2 0 1.9 1.4 3.2 3.5 3.2z"/>
    <path d="M173.6 41.3c3.8 0 6.1 2.5 6.1 6.4v.8h-9c.4 1.3 1.7 2.1 3.4 2.1 1.2 0 2.2-.4 3.1-1.1l1.5 1.6c-1.2 1.3-2.9 2-4.8 2-3.9 0-6.4-2.4-6.4-5.9 0-3.5 2.5-6 6.1-6zm-3 5.3h6.4c-.2-1.6-1.4-2.6-3.1-2.6-1.6 0-2.9 1-3.3 2.6z"/>
    <path d="M188.1 41.3c3.5 0 5.6 1.8 5.6 5.4v5.6h-2.8v-5.2c0-2-1-3.1-3-3.1-2.2 0-3.5 1.2-3.5 3.7v4.6h-2.8V41.6h2.7v1.7c.8-1.2 2.1-2 3.8-2z"/>
  </g>
</svg>
